<?xml version="1.0" encoding="UTF-8"?>
<svg width="1200pt" height="1200pt" version="1.1" viewBox="0 0 1200 1200" xmlns="http://www.w3.org/2000/svg">
 <path d="m730.66 616.97-105.8 183.23h191.69l105.79-183.23zm-126.18 218.53-105.79 183.23h191.68l105.8-183.23zm-146.44 183.23 105.8-183.23h-179.43l-85.809 148.67c-4.7109 8.1836-6.9609 15.539-6.9609 21.539 0 2.7344 0.49609 5.0234 1.418 6.7461 0.85156 1.5391 2.0938 2.8203 3.6523 3.7188 2.8516 1.6445 7.0234 2.5625 12.465 2.5625zm126.18-218.53 105.79-183.23h-128.48c-13.387 0-29.262 5.8125-44.02 15.168-15.258 9.6641-28.852 22.789-37.027 36.969l-75.684 131.1zm378.77-183.23-105.8 183.23h179.43l85.797-148.61c4.7148-8.1641 6.9648-15.547 6.9648-21.598 0-2.7227-0.49219-5.0117-1.4219-6.7344-0.85156-1.5508-2.0898-2.832-3.6484-3.7305-2.8516-1.6406-7.0156-2.5625-12.457-2.5625zm-126.18 218.53-105.79 183.23h128.49c13.391 0 29.258-5.8125 44.012-15.164 15.219-9.6367 28.805-22.781 37.039-37.039l0.57031-0.92188 75.117-130.11zm22.699 218.54h-58.883v37.016h65.211c9.7422 0 17.645 7.9023 17.645 17.648 0 9.7422-7.9023 17.645-17.645 17.645h-429.33c-9.7422 0-17.648-7.9023-17.648-17.645 0-9.7461 7.9062-17.648 17.648-17.648h65.199v-37.016h-192.52c-11.637 0-21.73-2.6562-29.973-7.4062-7.5039-4.3242-13.277-10.246-17.129-17.406-3.7695-6.9648-5.7344-14.918-5.7344-23.516 0-11.891 3.8008-25.309 11.84-39.164l81.406-140.98c-45.84-20.27-85.18-52.547-114-92.785-32.695-45.66-51.961-101.62-51.961-162.02 0-76.883 31.191-146.55 81.578-196.94 50.395-50.383 120.05-81.578 196.95-81.578 76.887 0 146.54 31.195 196.93 81.578 50.383 50.395 81.578 120.06 81.578 196.94 0 3.3438-0.089843 6.9922-0.25781 10.906h371.44c11.633 0 21.719 2.6523 29.961 7.4023 7.5039 4.3242 13.277 10.234 17.141 17.418 3.7617 6.9531 5.7188 14.898 5.7188 23.504 0 11.844-3.8086 25.25-11.801 39.109l-90.074 156.01c-0.46875 1.0508-1.0469 2.0391-1.707 2.9688l-89.574 155.14-0.51172 0.94922c-11.145 19.297-28.941 36.707-48.602 49.16-20.133 12.766-42.719 20.695-62.902 20.695zm-94.18 0h-228.33v37.016h228.33zm-320.81-962.72c0-9.7422 7.9062-17.645 17.648-17.645 9.7461 0 17.648 7.9023 17.648 17.645v122.07c0 9.7422-7.9023 17.645-17.648 17.645-9.7422 0-17.648-7.9023-17.648-17.645zm418.14 221.05c8.4023-4.8359 19.148-1.9336 23.98 6.4727 4.832 8.4062 1.9297 19.148-6.4727 23.98l-105.71 61.031c-8.4023 4.832-19.145 1.9297-23.98-6.4727-4.832-8.4102-1.9297-19.152 6.4727-23.984zm-818.48 30.453c-8.4062-4.832-11.305-15.574-6.4727-23.98s15.574-11.309 23.98-6.4727l105.71 61.027c8.4062 4.832 11.309 15.574 6.4727 23.984-4.832 8.4023-15.574 11.305-23.98 6.4727zm17.574 472.55c-8.4023 4.875-19.176 2-24.047-6.4023-4.875-8.4023-2.0039-19.18 6.4023-24.055l105.71-61.035c8.4062-4.8711 19.18-2.0039 24.051 6.4023 4.875 8.4023 2 19.176-6.4023 24.051z" fill="#e79301"/>
</svg>
